<?xml version="1.0" encoding="iso-8859-1"?>
<!-- Generator: Adobe Illustrator 19.0.0, SVG Export Plug-In . SVG Version: 6.00 Build 0)  -->
<svg version="1.1" id="Capa_1" xmlns="http://www.w3.org/2000/svg" xmlns:xlink="http://www.w3.org/1999/xlink" x="0px" y="0px" width="256px" height="256px"
	 viewBox="0 0 512.025 512.025" style="enable-background:new 0 0 512.025 512.025;" xml:space="preserve">
<g>
	<path style="fill:#00FFB0;" d="M360.025,299.756c0,2.8,0.32,5.44,1.04,8c3.52,13.84,16.08,24,30.96,24s27.44-10.16,30.96-24
		c0.72-2.56,1.04-5.2,1.04-8c0-17.68-14.32-32-32-32S360.025,282.076,360.025,299.756z"/>
	<path style="fill:#00FFB0;" d="M80.025,299.756c0,2.8,0.32,5.44,1.04,8c3.52,13.84,16.08,24,30.96,24s27.44-10.16,30.96-24
		c0.72-2.56,1.04-5.2,1.04-8c0-17.68-14.32-32-32-32C94.345,267.756,80.025,282.076,80.025,299.756z"/>
	<path style="fill:#00FFB0;" d="M192.825,224.156l22.64,1.68l128.56,9.92l24-16l-40-24l-12.56-7.52
		c-17.92-10.8-38.48-16.48-59.44-16.48h-56h-56l-32,32l24,16L192.825,224.156z"/>
	<polygon style="fill:#00FFB0;" points="88.025,227.756 60.585,207.196 48.025,219.756 48.025,243.756 72.025,243.756 	"/>
</g>
<g>
	
		<rect x="0.023" y="331.998" transform="matrix(-1 0.0029 -0.0029 -1 193.032 679.7161)" style="fill:#000A64;" width="192.001" height="16"/>
	<rect x="208.025" y="331.756" style="fill:#000A64;" width="32" height="16"/>
	<rect x="256.025" y="331.756" style="fill:#000A64;" width="208" height="16"/>
	<rect x="480.025" y="331.756" style="fill:#000A64;" width="32" height="16"/>
	<path style="fill:#000A64;" d="M64.153,315.756h11.376c6.24,14.392,20.488,24,36.624,24c16.176,0,30.464-9.672,36.64-24h52.68
		h16.264h98.6h17.224h21.96c6.24,14.392,20.488,24,36.624,24c16.176,0,30.464-9.672,36.64-24h35.368c13.232,0,24-10.768,24-24
		c0-9.664-2.368-19.248-6.864-27.768c-0.624-1.176-1.352-2.456-2.096-3.648c-5.88-9.488-14.208-17.112-24.104-22.064l-22.72-11.36
		c-19.152-9.576-40.504-14.744-61.896-15.096l-50.752-30.44c-19.136-11.528-41.112-17.632-63.568-17.632h-49.96h-16.64h-26.088
		h-22.624h-48l-43.056,43.064l-9.624,9.624v24l-16,16v19.312C24.153,297.812,42.097,315.756,64.153,315.756z M135.425,305.492
		c-0.016,0.072-0.024,0.136-0.04,0.208l-0.056,0.192c-2.728,10.528-12.24,17.872-23.176,17.872
		c-10.968,0-20.512-7.392-23.256-18.168c-0.504-1.776-0.744-3.68-0.744-5.832c0-13.232,10.768-24,24-24s24,10.768,24,24
		C136.153,301.868,135.905,303.74,135.425,305.492z M415.425,305.492c-0.016,0.072-0.024,0.136-0.04,0.208l-0.056,0.192
		c-2.728,10.528-12.24,17.872-23.176,17.872c-10.968,0-20.512-7.392-23.256-18.168c-0.504-1.776-0.744-3.68-0.744-5.832
		c0-13.232,10.768-24,24-24s24,10.768,24,24C416.153,301.868,415.905,303.74,415.425,305.492z M370.545,227.78
		c18.896,0.36,37.752,4.992,54.672,13.456l22.72,11.352c3.752,1.88,7.184,4.312,10.24,7.168h-18.024v16h28.928
		c2,5.064,3.072,10.504,3.072,16c0,4.408-3.584,8-8,8h-32c0-22.056-17.944-40-40-40s-40,17.944-40,40h-12.184l12.184-30.464v-29.256
		L370.545,227.78z M256.153,179.756c19.544,0,38.672,5.304,55.328,15.344l41.72,25.008l-11.184,7.456l-120.256-9.28l-2.168-7.584
		l-8.832-30.952L256.153,179.756L256.153,179.756z M336.153,243.164v23.056l-13.416,33.536H214.833l-8.576-47.128l-3.584-19.728
		L336.153,243.164z M147.465,179.756h46.648l7.144,25.016l3.496,12.232l-65.896-5.072l-14.152-9.424L147.465,179.756z
		 M56.153,223.068l5.312-5.312l14.504,10.864l-7.136,7.136h-12.68V223.068z M40.153,263.068l11.312-11.312h24l24.864-24.864
		l-27.44-20.56l26.568-26.576h25.376l-25.24,25.24l33.848,22.576l52.736,4.08l1.176,6.464l11.208,61.64h-46.408
		c0-22.056-17.944-40-40-40s-40,17.944-40,40h-8c-13.232,0-24-10.768-24-24C40.153,275.756,40.153,263.068,40.153,263.068z"/>
	<rect x="384.185" y="291.756" style="fill:#000A64;" width="16" height="16"/>
	<rect x="104.185" y="291.756" style="fill:#000A64;" width="16" height="16"/>
</g>
<g>
</g>
<g>
</g>
<g>
</g>
<g>
</g>
<g>
</g>
<g>
</g>
<g>
</g>
<g>
</g>
<g>
</g>
<g>
</g>
<g>
</g>
<g>
</g>
<g>
</g>
<g>
</g>
<g>
</g>
</svg>
