<svg id="Layer_5" enable-background="new 0 0 64 64" height="512" viewBox="0 0 64 64" width="512" xmlns="http://www.w3.org/2000/svg"><path d="m40 2 2 6h-20l2-6z" fill="#fcd770"/><path d="m62 59v2c0 .55-.45 1-1 1h-58c-.55 0-1-.45-1-1v-2c0-.55.45-1 1-1h1 56 1c.55 0 1 .45 1 1z" fill="#aab2bd"/><path d="m62 9v2c0 .55-.45 1-1 1h-1-56-1c-.55 0-1-.45-1-1v-2c0-.55.45-1 1-1h19 20 19c.55 0 1 .45 1 1z" fill="#aab2bd"/><path d="m60 58h-56v-46h56z" fill="#e6e9ed"/><path d="m28 16v14l-3.11-6.21c-.54-1.1-1.66-1.79-2.89-1.79s-2.35.69-2.89 1.79l-1.86 3.71-1.68-5.58c-.34-1.14-1.38-1.92-2.57-1.92s-2.23.78-2.57 1.92l-2.43 8.08v-14z" fill="#ffeaa7"/><path d="m24.89 23.79 3.11 6.21h-12l1.25-2.5 1.86-3.71c.54-1.1 1.66-1.79 2.89-1.79s2.35.69 2.89 1.79z" fill="#b4dd7f"/><path d="m15.57 21.92 1.68 5.58-1.25 2.5h-8l2.43-8.08c.34-1.14 1.38-1.92 2.57-1.92s2.23.78 2.57 1.92z" fill="#b4dd7f"/><path d="m43 41h13c0 7.18-5.82 13-13 13-3.59 0-6.84-1.46-9.19-3.81z" fill="#fcd770"/><path d="m56 41h-13l-9.19-9.19c2.35-2.35 5.6-3.81 9.19-3.81 7.18 0 13 5.82 13 13z" fill="#ff826e"/><path d="m43 41-9.19 9.19c-2.35-2.35-3.81-5.6-3.81-9.19s1.46-6.84 3.81-9.19z" fill="#b4dd7f"/><path d="m63 11v-2c0-1.103-.897-2-2-2h-18.28l-2-6h-17.441l-2 6h-18.279c-1.103 0-2 .897-2 2v2c0 1.103.897 2 2 2v44c-1.103 0-2 .897-2 2v2c0 1.103.897 2 2 2h58c1.103 0 2-.897 2-2v-2c0-1.103-.897-2-2-2v-44c1.103 0 2-.897 2-2zm-38.279-8h14.559l1.334 4h-17.227zm-21.721 6h58l.002 2h-58.002zm58.002 52h-58.002v-2h58zm-2.002-4h-54v-44h54z"/><path d="m43 55c7.72 0 14-6.28 14-14s-6.28-14-14-14-14 6.28-14 14 6.28 14 14 14zm-1.414-14-7.741 7.741c-1.771-2.092-2.845-4.792-2.845-7.741s1.074-5.649 2.845-7.741zm1.414 12c-2.949 0-5.649-1.074-7.741-2.845l8.155-8.155h11.535c-.511 6.15-5.669 11-11.949 11zm11.949-13h-11.535l-8.155-8.155c2.092-1.771 4.792-2.845 7.741-2.845 6.28 0 11.438 4.85 11.949 11z"/><path d="m31 15h2v2h-2z"/><path d="m35 15h22v2h-22z"/><path d="m31 19h2v2h-2z"/><path d="m35 19h22v2h-22z"/><path d="m31 23h2v2h-2z"/><path d="m35 23h22v2h-22z"/><path d="m29 15h-22v16h22zm-2 2v8.764l-1.211-2.422c-.722-1.445-2.174-2.342-3.789-2.342s-3.067.897-3.789 2.342l-.728 1.456-.951-3.169c-.47-1.572-1.89-2.629-3.532-2.629s-3.062 1.057-3.532 2.629l-.468 1.559v-6.188zm-11.618 12h-6.038l2.04-6.797c.216-.72.865-1.203 1.616-1.203s1.4.483 1.616 1.203l1.562 5.204zm4.618-4.764c.381-.762 1.147-1.236 2-1.236s1.619.474 2 1.236l2.382 4.764h-8.764z"/><path d="m27 55v-2h-2v-12h-2v12h-2v-6h-2v6h-2v-14h-2v14h-2v-10h-2v10h-2v-16h-2v18z"/><circle cx="56" cy="54" r="1"/></svg>